<svg id="Layer_1" data-name="Layer 1" xmlns="http://www.w3.org/2000/svg" viewBox="0 0 40 35"><title>eat-mobile</title><path d="M55.85,40.35H20.32a2.2,2.2,0,0,0-2.23,2.16v1.75a2.2,2.2,0,0,0,2.23,2.16h0.5v0.53A5.14,5.14,0,0,0,26,52H50.14a5.14,5.14,0,0,0,5.21-5V46.42h0.5a2.2,2.2,0,0,0,2.23-2.16V42.51A2.2,2.2,0,0,0,55.85,40.35Zm-2.08,6.6a3.58,3.58,0,0,1-3.63,3.51H26a3.58,3.58,0,0,1-3.63-3.51V46.42H53.77v0.53Zm2.74-2.68a0.66,0.66,0,0,1-.66.64H20.32a0.66,0.66,0,0,1-.66-0.64V42.51a0.66,0.66,0,0,1,.66-0.64H55.85a0.66,0.66,0,0,1,.66.64v1.75Z" transform="translate(-18.08 -16.98)" style="fill:#82b4d3"/><polygon points="8.49 19.21 11.36 21.24 14.24 19.21 17.12 21.24 19.99 19.21 22.87 21.24 25.75 19.21 28.62 21.24 31.5 19.21 34.38 21.24 37.73 18.89 36.8 17.66 34.38 19.36 31.5 17.33 28.62 19.36 25.75 17.33 22.87 19.36 19.99 17.33 17.12 19.36 14.24 17.33 11.36 19.36 8.49 17.33 5.61 19.36 3.2 17.66 2.27 18.89 5.61 21.24 8.49 19.21" style="fill:#82b4d3"/><path d="M55.31,32.76c0-.31,0-1.33,0-1.52C55,23.31,47.39,17,38.08,17S21.19,23.31,20.84,31.24c0,0.19,0,1.21,0,1.52H55.31ZM38.08,18.5c8.42,0,15.31,5.66,15.67,12.74H22.41C22.77,24.16,29.66,18.5,38.08,18.5Z" transform="translate(-18.08 -16.98)" style="fill:#82b4d3"/><ellipse cx="20" cy="7.63" rx="1.05" ry="1.02" style="fill:#82b4d3"/><ellipse cx="15.8" cy="5.12" rx="1.05" ry="1.02" style="fill:#82b4d3"/><ellipse cx="24.2" cy="5.12" rx="1.05" ry="1.02" style="fill:#82b4d3"/></svg>