<svg id="Layer_1" data-name="Layer 1" xmlns="http://www.w3.org/2000/svg" viewBox="0 0 39 37"><title>home-mobile</title><path d="M33.25,51.09h8.35V38.85H33.25V51.09h0Zm6.82-1.5H34.79V40.35h5.29v9.24Z" transform="translate(-17.85 -17.67)" style="fill:#82b4d3"/><path d="M55.76,37.84l1.08-1.06-5.17-5.07V17.91H44.46v6.73l-7.11-7L17.85,36.78l1.08,1.06,4.09-4V53.17H21v1.5H54.32v-1.5H51.67V33.84ZM46,19.42h4.14V30.21L46,26.15V19.42Zm4.14,33.75H24.56V32.34L37.35,19.81,50.14,32.34V53.17Z" transform="translate(-17.85 -17.67)" style="fill:#82b4d3"/><path d="M33.38,31.59a4,4,0,1,0,4-4A4,4,0,0,0,33.38,31.59Zm4-2.54a2.54,2.54,0,1,1-2.59,2.54A2.57,2.57,0,0,1,37.43,29Z" transform="translate(-17.85 -17.67)" style="fill:#82b4d3"/><rect x="8.83" y="21.18" width="1.57" height="2.01" style="fill:#82b4d3"/><rect x="11.93" y="21.18" width="1.57" height="2.01" style="fill:#82b4d3"/><rect x="8.83" y="24.25" width="1.57" height="2.01" style="fill:#82b4d3"/><rect x="11.93" y="24.25" width="1.57" height="2.01" style="fill:#82b4d3"/><rect x="25.5" y="21.18" width="1.57" height="2.01" style="fill:#82b4d3"/><rect x="28.6" y="21.18" width="1.57" height="2.01" style="fill:#82b4d3"/><rect x="25.5" y="24.25" width="1.57" height="2.01" style="fill:#82b4d3"/><rect x="28.6" y="24.25" width="1.57" height="2.01" style="fill:#82b4d3"/></svg>