<svg id="Layer_1" data-name="Layer 1" xmlns="http://www.w3.org/2000/svg" viewBox="0 0 101.67 83.98"><title>logo-mobile</title><g id="Layer_2" data-name="Layer 2"><g id="Layer_2-2" data-name="Layer 2"><polygon points="0 0 50.58 59.05 101.67 0 0 0" style="fill:#23a9e1"/><path d="M50.92,0H0V22.46L50.58,84l0.34-.42,50.75-60.39V0H50.92Zm0,57.05-0.34.41L3.71,1.78H98.13Z" style="fill:#491213"/><path d="M50.58,57.46l0.34-.41L78.5,24.76c-6.91.95-11.86,6.08-18.6,5-3.4-.56-3.5-2.51-4.47-4.45-0.75-1.49-1.94-1.3-3.49-1.91s-2.28-1.74-5.16-1.06c-2.53.59-2.81,4.52-6,4.29-1.69-.12-1.81-2.5-4.24-5.54-6.3-7.57-12.16-6.52-16.25.47Z" style="fill:#491213"/><path d="M23.28,32.25a2.81,2.81,0,0,1,.81,2.12c-0.06.58-.94,1.55-0.27,1.85l2.24-2.83c-0.6-.15-5.37-5.85-5.44-6.47l-3.16,1.73c0.16,0.66,1.3,0,1.85,0a2.92,2.92,0,0,1,2,1.15c-1.73,1.45-5.93,5-6.37,5.09-0.23,0-1.09-.6-1.1-0.05a4.85,4.85,0,0,0,1,1.21L17,38.73c0.62-.28-0.11-0.73.2-1.24s4.9-4.27,6-5.24h0Z" style="fill:#fff"/><path d="M18,25.27c0.44-.09.62,0.43,1-0.06l-2.45-2.92c-0.37-.44-0.84-0.92-0.71,0C15.9,22.94,9.7,28,9.32,28.13s-0.76-.42-1.11.1l2.19,2.61c0.25,0.29.48,0.61,0.75,0.88s0.21-.67.22-0.59a1.65,1.65,0,0,1,.85-1.23A60.44,60.44,0,0,1,18,25.27Z" style="fill:#fff"/><path d="M9.24,24.35a3.22,3.22,0,0,1-4.21-2c-0.54-1.83.61-3.76,2.07-4.8s3.59-1,4.37.84a3.61,3.61,0,0,1-.09,2.5c-0.16.51-.6,1,0.06,1.29L14,18.85c-1.06-.63-1.52-1.68-2.3-2.6A5.87,5.87,0,0,0,8.23,14c-2.87-.41-5.57,2.56-5.79,5.24a5.76,5.76,0,0,0,1.25,4c0.75,1,1.87,1.62,2.44,2.75a22.46,22.46,0,0,0,3.29-1.26,1.56,1.56,0,0,0-.17-0.37h0Z" style="fill:#fff"/><path d="M48.54,60.76c-1.15-.77-4-4.69-4.57-5.34L43.63,55a2.22,2.22,0,0,0-.25.19c-0.17.15,0.13,0.57-.05,0.87-0.79,1.24-5.76,5-6,5.16-0.55.38-1.16-.16-1.49,0.31a44.43,44.43,0,0,0,3,3.58c0.48,0.08.15-.81,0.21-1a31.56,31.56,0,0,1,3.55-3.21c0.34-.28.69,0.43,0.89,0.72a1.76,1.76,0,0,1,.3,1.57c-0.12.37-.72,0.92-0.25,1.17l2.61-3c0.25-.29-0.57,0-0.47-0.09a0.92,0.92,0,0,1-1.06,0,5,5,0,0,1-1-1.17A4.64,4.64,0,0,1,45.15,59c0.86-.21,1.58,1.52,1.71,2.13a3.45,3.45,0,0,1-.08,1.75c-0.12.39-.49,0.7,0,0.93l2.13-2.92a0.68,0.68,0,0,1-.4-0.09C48.41,60.68,48.67,60.83,48.54,60.76Z" style="fill:#fff"/><path d="M38.31,56.63a5.48,5.48,0,1,0-7.79-1.07,5.42,5.42,0,0,0,7.79,1.07C39.47,55.65,38.21,56.7,38.31,56.63Zm-0.46-4.75a7.44,7.44,0,0,1-3.73,3.67c-1.82.71-3.1-.83-2.36-2.55a7.46,7.46,0,0,1,3.74-3.67c1.85-.73,3.07.85,2.36,2.55C37.47,52.77,37.92,51.71,37.85,51.88Z" style="fill:#fff"/><path d="M31.87,42c0.48,0.06.93,0.55,1.27,0l-2.23-2.64c-0.6.27,0,.55-0.19,1s-2.56.78-3.18,0.89a16,16,0,0,1,1.16-2.83c0.54-.44.88,0.43,1.28-0.14l-2.74-3.25c-0.31-.37-0.56-1-1-0.68a8.39,8.39,0,0,1-.09,1.73c-0.09.24-.94,3.64-1.93,4.47a21.44,21.44,0,0,1-2.7,2.1c-0.54.19-.82-0.6-1.22,0l2.49,3a4.29,4.29,0,0,0,.77.89c0.52,0.1.06-.89,0.11-1.09,0.15-.43,2.5-2.72,3.5-2.86A19.26,19.26,0,0,1,31.87,42h0Z" style="fill:#fff"/><path d="M69.21,52.45a5,5,0,0,1,.21,2c-0.11.87-1,2.92-2.17,2.34a18.4,18.4,0,0,1-3.19-2.55c0.8-.94,1.51-1.75,2.85-1.29,0.37,0.12.69,0,.3-0.26s-3.11-2-3.26-1.8,0.53,0.87.22,1.47a7,7,0,0,1-.93,1.22c-0.72-.61-1.92-1.25-1.06-2.26A3.68,3.68,0,0,1,64.28,50c0.56-.11,1.84.39,2-0.22L63,48.2c0.18,0.8-3.35,4.52-4.13,5.46a3.17,3.17,0,0,0-.66.8c0,0.43.62,0.1,0.66,0.08,0.49-.18,6.82,5.11,7,5.47a2,2,0,0,0,0,.73,0.86,0.86,0,0,0,.25.19c0.39-.47,4.52-6,5.37-6.22-0.79-1.21-1.59-2.43-2.37-3.65C68.5,51.32,69.07,52,69.21,52.45Z" style="fill:#fff"/><path d="M63,59.15c-2.08-1.34-5.6,1.28-6.12,1.53a1,1,0,0,1-1.25-1.5A2.77,2.77,0,0,1,58,57.89a4.68,4.68,0,0,0,1.46,0c0.13-.2.23-0.22,0-0.35l-2.57-1.73c-0.18,1.06-1.39,1.73-2.08,2.44a4.71,4.71,0,0,0-1.52,3.16A3,3,0,0,0,55,64.09a3.31,3.31,0,0,0,3.32-.51,19,19,0,0,1,1.92-1.17c1-.47,2.31-0.06,2,1.27A3.59,3.59,0,0,1,59.79,66a3.29,3.29,0,0,1-1.87-.09c-0.43-.14-1-0.73-1.23-0.11l3.48,2.54a2.33,2.33,0,0,1,1.09-1.56,11.7,11.7,0,0,0,2-2.13C64.41,63,64.79,60.6,63,59.15Z" style="fill:#fff"/><path d="M63,59.15c0.93,0.6-.59-0.49,0,0h0Z" style="fill:#fff"/><path d="M92.28,21.84h0Z" style="fill:#fff"/><path d="M99.73,19.63c-0.73.73-8.42-2.34-9-2.76-0.29-.12-0.3-1.32-0.71-0.83l-1.21,1.46L87.58,19c-0.26.31-.54,0.46,0,0.72,0.84-.42,5.42,7.35,5,8.46-0.73.38-6.91-5.06-7.08-5.42-0.05-.15.27-1-0.21-0.95a4.23,4.23,0,0,0-.89,1.07L83.48,24c0.33,0.48.52,0,1,0a13.22,13.22,0,0,1,2.24,1.66c-0.73,0-2.69.13-2.93,0.11-0.9.11-.42-0.66-1-0.93l-2.28,2.76-1.33,1.61c-0.05.07,0,0,.05,0.11,0.33,0.27.1,0.17,0.57,0s6.56,4.93,6.78,5.19c0.38,0.45-.15,1,0.41,1.22l1.8-2.18c0.09-.11.14-0.1,0-0.2-0.43-.35-0.48.21-1,0.15s-4.4-3.37-5.9-4.61l8.2-.3a1.84,1.84,0,0,1,1.07,1.22c-0.08.38-.46,0.56,0.06,0.79,0.48-.58,1-1.15,1.46-1.73h0l0.23-.28a0.74,0.74,0,0,0,.21-0.26l0.17-.21c0.43-.49,1.8-2,1.63-2.15-0.46-.4-0.68.47-1.3-0.05a12.84,12.84,0,0,1-1.44-2.16c-0.26-.45.61-0.9,1-1.12,0.78-.48,3.25-1.18,3.48.35a1.27,1.27,0,0,0-.08.7s0.21,0.24.27,0.16l3.3-4A1.38,1.38,0,0,0,99.73,19.63Zm-7.37,2.16h0l-0.08.05,0.08-.05a5.72,5.72,0,0,0-1,.76l-1.56-2.69,3.52,1.48A3.72,3.72,0,0,0,92.36,21.78Z" style="fill:#fff"/><path d="M82.62,33a5.48,5.48,0,1,0,.59,7.6A5.38,5.38,0,0,0,82.62,33Zm-0.28,6.61,0,0c-1.23,1.29-3.36.1-4.51-.73s-3.11-2.57-1.86-4.1c1.06-1.29,3.12-.23,4.19.48s3.41,2.6,2.28,4.22A1.23,1.23,0,1,1,82.33,39.61Z" style="fill:#fff"/><path d="M82.62,33c1.17,1-.25-0.21,0,0h0Z" style="fill:#fff"/><path d="M82.31,39.64l0,0,0.08-.11Z" style="fill:#fff"/><path d="M76,42.12c0.11,0.09.27,0.22-.06-0.06-2.84-2.13-6.19-1.5-8.4,1.16l-3,3.57c0.35,0.51.76-.12,1.27,0.18s6.24,5.1,6.34,5.36c0.16,0.46-.25.55,0.14,0.88A41.37,41.37,0,0,0,77.29,47,4.34,4.34,0,0,0,76,42.12Zm-1.32,6.75a4.63,4.63,0,0,1-.66.65c-0.31.29-6.44-4.68-6.19-4.94a4.35,4.35,0,0,1,3.58-1.3C73.62,43.84,76.64,46.54,74.71,48.87Z" style="fill:#fff"/></g><path d="M50.58,57.48l0.34-.41L78.5,24.78c-6.91.95-11.86,6.08-18.6,5-3.4-.56-3.5-2.51-4.47-4.46-0.75-1.49-1.94-1.3-3.49-1.91s-2.28-1.74-5.16-1.06c-2.53.59-2.81,4.52-6,4.29-1.69-.12-1.81-2.5-4.24-5.54-6.3-7.57-12.16-6.52-16.25.48Z" style="fill:#491213"/><polygon points="46.56 70.92 50.58 64.42 54.58 70.92 50.58 77.43 46.56 70.92" style="fill:#23a9e1"/><path d="M23.28,32.27a2.81,2.81,0,0,1,.81,2.12c-0.06.58-.94,1.55-0.27,1.85l2.24-2.83c-0.6-.15-5.37-5.85-5.44-6.47l-3.16,1.73c0.16,0.66,1.29,0,1.85,0a2.92,2.92,0,0,1,2,1.15c-1.73,1.45-5.93,5-6.37,5.09-0.23,0-1.09-.6-1.1-0.06a4.9,4.9,0,0,0,1,1.21L17,38.75c0.62-.28-0.11-0.73.21-1.24s4.9-4.27,6-5.24h0Z" style="fill:#fff"/><path d="M18,25.29c0.44-.1.62,0.43,1-0.06l-2.45-2.92c-0.37-.44-0.84-0.92-0.71,0C15.9,23,9.7,28,9.32,28.15s-0.76-.42-1.11.1l2.19,2.61c0.25,0.29.48,0.61,0.75,0.88s0.21-.67.22-0.58a1.66,1.66,0,0,1,.86-1.23A60.5,60.5,0,0,1,18,25.29Z" style="fill:#fff"/><path d="M9.24,24.37a3.22,3.22,0,0,1-4.21-2c-0.54-1.83.61-3.76,2.07-4.8s3.59-1,4.37.84a3.61,3.61,0,0,1-.09,2.5c-0.16.51-.6,1,0.06,1.29L14,18.87c-1.06-.63-1.52-1.68-2.3-2.6A5.86,5.86,0,0,0,8.23,14c-2.87-.41-5.57,2.56-5.79,5.24a5.75,5.75,0,0,0,1.25,4c0.75,1,1.87,1.62,2.43,2.75a22.52,22.52,0,0,0,3.29-1.26,1.55,1.55,0,0,0-.17-0.37h0Z" style="fill:#fff"/><path d="M48.54,60.78c-1.15-.77-4-4.69-4.57-5.34L43.63,55a2.3,2.3,0,0,0-.25.19c-0.17.15,0.13,0.57-.05,0.86-0.79,1.24-5.76,5-6,5.16-0.56.38-1.16-.16-1.49,0.32a45,45,0,0,0,3,3.58c0.48,0.08.15-.81,0.21-1a31.55,31.55,0,0,1,3.55-3.21c0.34-.28.69,0.43,0.89,0.72a1.76,1.76,0,0,1,.3,1.57c-0.12.37-.72,0.92-0.25,1.17l2.61-3c0.25-.29-0.57,0-0.47-0.09a0.91,0.91,0,0,1-1.06,0,5,5,0,0,1-1-1.17A4.63,4.63,0,0,1,45.15,59c0.86-.21,1.58,1.52,1.71,2.13a3.45,3.45,0,0,1-.08,1.75c-0.12.39-.49,0.7,0,0.93l2.13-2.92a0.7,0.7,0,0,1-.4-0.1C48.41,60.69,48.67,60.85,48.54,60.78Z" style="fill:#fff"/><path d="M38.31,56.65a5.48,5.48,0,1,0-7.79-1.07,5.42,5.42,0,0,0,7.79,1.07C39.47,55.67,38.21,56.72,38.31,56.65Zm-0.46-4.75a7.45,7.45,0,0,1-3.73,3.67c-1.82.71-3.1-.83-2.36-2.55a7.45,7.45,0,0,1,3.74-3.67c1.85-.74,3.07.85,2.36,2.55C37.46,52.78,37.92,51.72,37.85,51.89Z" style="fill:#fff"/><path d="M31.87,42c0.47,0.06.93,0.55,1.27,0l-2.23-2.64c-0.59.27,0,.55-0.19,1s-2.56.78-3.18,0.89a15.9,15.9,0,0,1,1.16-2.84c0.54-.44.88,0.43,1.28-0.14l-2.74-3.25c-0.31-.37-0.56-1-1-0.68a8.41,8.41,0,0,1-.09,1.73c-0.09.24-.94,3.64-1.93,4.47a21.51,21.51,0,0,1-2.7,2.1c-0.54.19-.83-0.6-1.22,0l2.49,3a4.3,4.3,0,0,0,.77.89c0.52,0.09.06-.89,0.11-1.09,0.15-.43,2.5-2.72,3.5-2.86A19.37,19.37,0,0,1,31.87,42h0Z" style="fill:#fff"/><path d="M25.61,22.87c-4-.17-2.35-4,0.39-4.81s8.09,1.72,9.84,3.4c-2.78.85-6.39,0.73-9.45,0.87-0.23-3.12-1-2-.79.54h0Z" style="fill:#dc6243"/><path d="M26.62,27.72c-2-1.58-1.4-5.27,1.76-4.15,4,2.08-.86,3.24-1.76,4.15h0Z" style="fill:#dc6243"/><path d="M35.11,35.42c-8.62-.07-2.79-13.32.14-12.52,3.37,1.07,3,12.62-.14,12.52h0Z" style="fill:#dc6243"/><path d="M41.22,31.09c-0.84,2.5-2.36,3-2.19-.07,0.19-3.5,2.48-2.66,4.93-4,2-1.12,3.14-5.21,6.64-2.77,1.56,1.09,3.35.18,3.85,1.83,0-.08-4.54,10.31-2,10.31-5,0-2.77-5.92-.87-9.9-1.85.88-4.84,6.69-2.38,7.64-1.28,1.69-5.19,3.94-7.23,2.3-1.55-1.25-.69-3.33-0.71-5.34h0Z" style="fill:#dc6243"/><path d="M45.32,40.7c-3.49,1-8.12-1.21-2.51-2.34,3.48-.7,7.19.78,2.51,2.34h0Z" style="fill:#dc6243"/><path d="M49.69,40.56c-0.74-1.66.56-3.64,2.68-2.2,1.85,1.25-.85,3.11-2.68,2.2h0Z" style="fill:#dc6243"/><path d="M46.74,45.22c-2.41-.75-10.54-0.56-5.22-2.76,1.64-.68,10.15.1,5.22,2.76h0Z" style="fill:#dc6243"/><path d="M50,44.87c0-1-.51-2.68,1.35-1.95C53.55,43.8,50,45.58,50,44.87h0Z" style="fill:#dc6243"/><path d="M57.18,48.54c-1.44-1.23-2.89-1.29-4.23,0-1.79-3.29-8.32-2.19-11.37-2.65,1.64,4,14.86,4.78,15.59,2.65h0Z" style="fill:#dc6243"/><path d="M55.28,51c-3.15-.15-6.67-0.56-9.65.08C47.49,51.51,52,52.84,47.8,54c1.52,2.17,4,2,5.58.13A15.44,15.44,0,0,1,51.83,53c1.67-.3,3.23-1.27,3.44-2.07h0Z" style="fill:#dc6243"/><path d="M58.87,47.08c-5.29-3.11-4-5.43.35-7.59,2.25-1.13,7.32-5.21,9.45-3.85l-9.8,11.44h0Z" style="fill:#dc6243"/><path d="M55.11,39.81c-4.48-4.6,6.69-4.18,8.49-5.8,1.31,0.44,10.77-8.28,13.07-7.74-1.66,1.94-5.22,8.14-7.77,8.14-2,0-4-.29-5.47,1.11-2.22,2-5.91,3.09-8.31,4.29h0Z" style="fill:#f49774"/><path d="M56.57,34.18c-2.45,1.32-4.77-3.91-.54-3.4,2.81,0.34,5.66-.24,8.35.23a8.66,8.66,0,0,1-7.81,3.17h0Z" style="fill:#f4b1a4"/><path d="M69.21,52.47a5,5,0,0,1,.21,2c-0.11.87-1,2.92-2.17,2.34a18.23,18.23,0,0,1-3.19-2.55c0.8-.94,1.51-1.75,2.85-1.29,0.37,0.12.69,0,.3-0.26s-3.11-2-3.26-1.8,0.53,0.87.22,1.47a7,7,0,0,1-.93,1.22c-0.72-.61-1.92-1.25-1.06-2.26A3.69,3.69,0,0,1,64.28,50c0.57-.11,1.84.39,2-0.22L63,48.21c0.18,0.8-3.35,4.52-4.13,5.46a3.14,3.14,0,0,0-.66.8c0,0.43.62,0.1,0.66,0.08,0.49-.18,6.82,5.11,7,5.47a2,2,0,0,0,0,.73,0.85,0.85,0,0,0,.25.18c0.39-.47,4.52-6,5.37-6.22-0.79-1.21-1.59-2.43-2.37-3.65C68.5,51.33,69.08,52,69.21,52.47Z" style="fill:#fff"/><path d="M63,59.17c-2.08-1.34-5.6,1.28-6.12,1.53a1,1,0,0,1-1.25-1.5A2.77,2.77,0,0,1,58,57.91a4.69,4.69,0,0,0,1.46,0c0.13-.2.23-0.22,0-0.35l-2.57-1.73c-0.18,1.06-1.38,1.73-2.08,2.44a4.7,4.7,0,0,0-1.52,3.16A3,3,0,0,0,55,64.11a3.31,3.31,0,0,0,3.32-.51,19.18,19.18,0,0,1,1.92-1.17c1-.47,2.3-0.06,2,1.27A3.6,3.6,0,0,1,59.79,66,3.29,3.29,0,0,1,57.92,66c-0.43-.14-1-0.73-1.23-0.11l3.48,2.54a2.33,2.33,0,0,1,1.09-1.56,11.68,11.68,0,0,0,2-2.13C64.41,63,64.79,60.62,63,59.17Z" style="fill:#fff"/><path d="M63,59.17c0.92,0.6-.59-0.49,0,0h0Z" style="fill:#fff"/><path d="M92.28,21.85h0Z" style="fill:#fff"/><path d="M99.74,19.64c-0.73.73-8.42-2.34-9-2.76-0.29-.12-0.3-1.32-0.71-0.83l-1.22,1.46L87.58,19c-0.26.31-.54,0.46,0,0.72,0.84-.42,5.42,7.35,5,8.46-0.72.38-6.92-5.06-7.08-5.42-0.05-.15.27-1-0.21-0.94a4.24,4.24,0,0,0-.89,1.07L83.48,24c0.33,0.48.52,0,1,0a13.15,13.15,0,0,1,2.24,1.66c-0.72,0-2.68.13-2.93,0.11-0.9.11-.42-0.66-1-0.93l-2.28,2.76-1.33,1.61c-0.05.07,0,0,0,.11,0.33,0.27.1,0.17,0.57,0s6.56,4.93,6.78,5.19c0.38,0.45-.15,1,0.41,1.22l1.8-2.18c0.09-.11.14-0.1,0-0.2-0.43-.35-0.48.21-1,0.15s-4.39-3.37-5.89-4.61l8.2-.3a1.85,1.85,0,0,1,1.07,1.22c-0.08.38-.46,0.56,0.05,0.79,0.48-.58,1-1.15,1.46-1.73h0l0.23-.28a0.74,0.74,0,0,0,.21-0.26l0.17-.21c0.42-.48,1.8-2,1.63-2.15-0.46-.4-0.68.47-1.3-0.05a12.9,12.9,0,0,1-1.44-2.16c-0.26-.45.61-0.9,1-1.12,0.78-.48,3.25-1.18,3.48.35a1.26,1.26,0,0,0-.08.7s0.2,0.24.27,0.16l3.3-4A1.47,1.47,0,0,0,99.74,19.64ZM92.36,21.8h0l-0.08.05,0.08-.05a5.71,5.71,0,0,0-1,.76l-1.56-2.69,3.52,1.48A3.73,3.73,0,0,0,92.36,21.8Z" style="fill:#fff"/><path d="M82.62,33a5.48,5.48,0,1,0,.59,7.6A5.38,5.38,0,0,0,82.62,33Zm-0.28,6.61,0,0c-1.23,1.29-3.36.1-4.51-.73s-3.11-2.57-1.86-4.1c1.06-1.29,3.12-.23,4.19.48s3.41,2.6,2.28,4.22C82.49,39.43,82.54,39.37,82.33,39.63Z" style="fill:#fff"/><path d="M82.62,33c1.17,1-.25-0.21,0,0h0Z" style="fill:#fff"/><path d="M82.31,39.65l0,0,0.08-.11Z" style="fill:#fff"/><path d="M76,42.14c0.11,0.09.27,0.22-.06-0.06-2.83-2.13-6.19-1.5-8.4,1.16l-3,3.57c0.35,0.51.76-.12,1.27,0.18s6.24,5.1,6.34,5.37c0.16,0.46-.25.55,0.14,0.88A41.39,41.39,0,0,0,77.29,47,4.34,4.34,0,0,0,76,42.14Zm-1.32,6.75a4.79,4.79,0,0,1-.66.65c-0.31.29-6.44-4.68-6.19-4.94a4.35,4.35,0,0,1,3.58-1.3C73.62,43.86,76.64,46.56,74.71,48.89Z" style="fill:#fff"/></g></svg>