<svg id="Layer_1" data-name="Layer 1" xmlns="http://www.w3.org/2000/svg" viewBox="0 0 32 38"><title>present-mobile</title><path d="M46.06,29.79H33.66c6.91-3.45,7.46-5.63,7.21-6.84a4,4,0,0,0-5-2.7c-2.79,1-3.57,5.19-4.32,8.19-1-3-1.89-6.91-4.07-8.87a3.66,3.66,0,0,0-2.88-1c-2,.18-4.9,2.69-3.73,5.49s4.84,4.39,7.29,5.74H16.94a1.44,1.44,0,0,0-1.44,1.43v5.66a1.44,1.44,0,0,0,1.44,1.43h0.14V56.54H46V38.32h0.05a1.44,1.44,0,0,0,1.44-1.43V31.23A1.44,1.44,0,0,0,46.06,29.79Zm-9.35-8.28a2.48,2.48,0,0,1,2.63,1.6c0.2,1.38-1.7,2.63-2.54,3.21-1.26.87-2.46,1.32-3.65,2C33.6,26.51,34.43,21.85,36.71,21.51Zm-11.45,5C24.16,25.76,22,24.28,22,22.61s2.87-3.29,4.41-1.94c1.93,1.69,2.86,5.55,3.56,8.28A34.73,34.73,0,0,1,25.27,26.5Zm3,28.56H18.57V38.32h9.69V55.06Zm0-18.25H17V31.31H28.26V36.8Zm5.08,18.25H29.75V31.31h3.59V55.05Zm11.18,0H34.83V38.32h9.69V55.06ZM46,36.8H34.83V31.31H46V36.8Z" transform="translate(-15.5 -18.54)" style="fill:#82b4d3"/></svg>